<svg xmlns="http://www.w3.org/2000/svg" viewBox="0 0 425.2 82.33"><defs><style>.cls-1{fill:#ff7172;}.cls-2{fill:#001e47;}.cls-3{fill:#6128ff;}.cls-4{fill:#ffc979;}</style></defs><title>Recurso 1</title><g id="Capa_2" data-name="Capa 2"><g id="Capa_1-2" data-name="Capa 1"><path class="cls-1" d="M33.8,10.8A34.62,34.62,0,0,0,0,43.84a3.36,3.36,0,0,0,3.31,3.6h7.34a34.84,34.84,0,0,1,.49-5.74C13.36,28.53,22.92,21,34.53,21a21.71,21.71,0,0,1,10.57,2.8,18.9,18.9,0,0,1,9.47,16.7h0a13.7,13.7,0,0,1-12.8,14.21,18.88,18.88,0,0,0,16.75-9.47,21.71,21.71,0,0,0,2.8-10.57C61.33,21.18,51.19,10.46,33.8,10.8Z"/><path class="cls-2" d="M10.66,48.53a34.62,34.62,0,0,0,33,33.8A3.36,3.36,0,0,0,47.3,79V71.66a35.87,35.87,0,0,1-5.74-.48C28.39,69,20.86,59.41,20.86,47.8a21.71,21.71,0,0,1,2.8-10.57,18.9,18.9,0,0,1,16.7-9.47h0a13.71,13.71,0,0,1,14.21,12.8A18.89,18.89,0,0,0,45.1,23.8,21.71,21.71,0,0,0,34.53,21C21,21,10.31,31.14,10.66,48.53Z"/><path class="cls-3" d="M48.35,71.66a34.62,34.62,0,0,0,33.8-33A3.36,3.36,0,0,0,78.83,35H71.5A34.84,34.84,0,0,1,71,40.75c-2.21,13.18-11.77,20.71-23.39,20.7A21.71,21.71,0,0,1,37,58.65,18.9,18.9,0,0,1,27.58,42h0a13.69,13.69,0,0,1,12.8-14.2,18.88,18.88,0,0,0-16.75,9.46,21.71,21.71,0,0,0-2.8,10.57C20.82,61.29,31,72,48.35,71.66Z"/><path class="cls-4" d="M71.49,33.94a34.62,34.62,0,0,0-33-33.8,3.36,3.36,0,0,0-3.6,3.31V10.8a35.29,35.29,0,0,1,5.74.48C53.77,13.5,61.29,23,61.29,34.67a21.71,21.71,0,0,1-2.8,10.57,18.9,18.9,0,0,1-16.7,9.47h0a13.7,13.7,0,0,1-14.21-12.8,18.88,18.88,0,0,0,9.47,16.75,21.71,21.71,0,0,0,10.57,2.8C61.12,61.47,71.84,51.32,71.49,33.94Z"/><path class="cls-2" d="M167.21,46.45l-11,15.22a.42.42,0,0,1-.34.17H147a.42.42,0,0,1-.34-.66l14.82-20.56a.65.65,0,0,0,0-.76L148.18,21.4a.42.42,0,0,1,.34-.66h8.77a.42.42,0,0,1,.34.17L167.21,34l9.58-13.12a.42.42,0,0,1,.34-.17h8.77a.42.42,0,0,1,.34.66L172.91,39.86a.65.65,0,0,0,0,.76l14.82,20.56a.42.42,0,0,1-.34.66h-8.85a.42.42,0,0,1-.34-.17Z"/><path class="cls-2" d="M212.52,19.86c12.16,0,21.26,9.18,21.26,21.43s-9.1,21.43-21.26,21.43-21.26-9.18-21.26-21.43S200.36,19.86,212.52,19.86Zm0,35c7.61,0,12.95-6,12.95-13.56s-5.34-13.56-12.95-13.56-12.95,6-12.95,13.56S204.91,54.85,212.52,54.85Z"/><path class="cls-2" d="M244.69,0h7.47a.42.42,0,0,1,.42.42v61a.42.42,0,0,1-.42.42h-7.47a.42.42,0,0,1-.42-.42V.42A.42.42,0,0,1,244.69,0Z"/><path class="cls-2" d="M271.58,43a.43.43,0,0,0-.43.47,13.25,13.25,0,0,0,13.26,12,14.66,14.66,0,0,0,11.53-5.29.41.41,0,0,1,.59,0l4.83,4.6a.42.42,0,0,1,0,.57c-3.12,3.82-8.9,7.4-17.08,7.4-12,0-21.26-9.1-21.26-21.43s8.4-21.43,20-21.43c11.46,0,19.77,9.27,19.77,21.43a15,15,0,0,1-.09,1.75Zm.24-7h22.39a11.49,11.49,0,0,0-10.85-8.92A12,12,0,0,0,271.82,36Z"/><path class="cls-2" d="M307,20.73h7.66a.42.42,0,0,1,.38.25l12,27.74,12-27.74a.42.42,0,0,1,.38-.25h7.66a.42.42,0,0,1,.38.58L330.1,61.59a.42.42,0,0,1-.38.25h-5.22a.42.42,0,0,1-.38-.25L306.62,21.32A.42.42,0,0,1,307,20.73Z"/><path class="cls-2" d="M359.84,43a.43.43,0,0,0-.43.47,13.25,13.25,0,0,0,13.26,12,14.66,14.66,0,0,0,11.53-5.29.41.41,0,0,1,.59,0l4.83,4.6a.42.42,0,0,1,0,.57c-3.12,3.82-8.9,7.4-17.08,7.4-12,0-21.26-9.1-21.26-21.43s8.4-21.43,20-21.43c11.46,0,19.77,9.27,19.77,21.43A15.07,15.07,0,0,1,391,43Zm.24-7h22.39a11.49,11.49,0,0,0-10.85-8.92A12,12,0,0,0,360.08,36Z"/><path class="cls-2" d="M424.34,27.62a.42.42,0,0,1-.51.35,12.91,12.91,0,0,0-2.78-.24c-4.25,0-8.75,2.92-11,6.81a.44.44,0,0,0-.06.22V61.43a.42.42,0,0,1-.42.42H402a.42.42,0,0,1-.42-.42V21.15a.42.42,0,0,1,.42-.42h7.21a.42.42,0,0,1,.42.42v3.14a.41.41,0,0,0,.71.28A15.49,15.49,0,0,1,422,19.86a22.33,22.33,0,0,1,2.84.2.41.41,0,0,1,.35.46Z"/><path class="cls-2" d="M111.26,43a.43.43,0,0,0-.43.47,13.25,13.25,0,0,0,13.26,12,14.66,14.66,0,0,0,11.53-5.29.41.41,0,0,1,.59,0l4.83,4.6a.42.42,0,0,1,0,.57c-3.12,3.82-8.9,7.4-17.08,7.4-12,0-21.26-9.1-21.26-21.43s8.4-21.43,20-21.43c11.46,0,19.77,9.27,19.77,21.43a15,15,0,0,1-.09,1.75Zm.24-7h22.39A11.49,11.49,0,0,0,123,27.12,12,12,0,0,0,111.49,36Z"/></g></g></svg>